<svg version="1.1" id="Layer_1" xmlns="http://www.w3.org/2000/svg" xmlns:xlink="http://www.w3.org/1999/xlink" x="0px" y="0px"
	 width="100%" viewBox="0 0 400 400" enable-background="new 0 0 400 400" xml:space="preserve">
<path fill="#000000" opacity="1.000000" stroke="none" 
	d="
M401.000000,360.536835 
	C392.016449,370.126068 382.964844,379.186432 374.070496,388.398590 
	C366.745667,395.985199 357.892029,396.031067 350.469391,388.599823 
	C328.000580,366.105011 305.485687,343.655518 282.868378,321.310242 
	C278.618103,317.111084 275.737244,312.664948 276.248657,306.436035 
	C276.446564,304.025604 267.842621,294.125305 265.412781,293.557068 
	C263.707764,293.158356 262.605225,294.299500 261.370178,295.097870 
	C228.652802,316.247528 193.194550,323.029510 154.925949,315.703400 
	C126.073112,310.179840 101.132385,297.142517 80.727188,276.183197 
	C52.312164,246.996552 38.230873,211.688263 39.069019,170.898285 
	C40.250015,113.422859 77.383339,61.151249 131.541321,40.711311 
	C152.668335,32.737698 174.612061,29.933575 197.269363,32.385437 
	C242.764343,37.308678 277.904510,59.313244 303.112915,96.926140 
	C318.257935,119.523682 325.773438,144.924774 326.232666,172.315048 
	C326.715210,201.099014 319.163116,227.603149 303.900970,251.883545 
	C301.123901,256.301575 301.409454,259.317841 305.203064,262.612244 
	C308.651215,265.606628 311.245087,269.382599 316.996368,268.540314 
	C320.538483,268.021515 323.861450,270.323364 326.599731,273.095764 
	C351.175995,297.978241 375.832977,322.781036 400.733093,347.803650 
	C401.000000,352.024536 401.000000,356.049103 401.000000,360.536835 
M79.864166,123.353966 
	C68.541595,145.263306 65.141037,168.672409 68.882423,192.722183 
	C72.685654,217.169449 83.608299,238.522324 101.276138,256.168121 
	C120.594994,275.462891 143.803253,286.870758 170.966660,289.462585 
	C203.551407,292.571716 232.539291,283.441254 257.553253,262.196289 
	C280.569244,242.648254 294.291443,217.573654 297.322113,187.832993 
	C301.149323,150.275757 289.596375,117.331146 261.665863,91.201927 
	C233.683594,65.024292 200.229156,54.974766 162.628738,61.600098 
	C125.339958,68.170517 98.086273,89.383377 79.864166,123.353966 
z"/>
<path fill="#000000" opacity="1.000000" stroke="none" 
	d="
M180.354797,143.388748 
	C184.372681,131.171692 188.254135,119.328796 192.115311,107.479286 
	C192.731186,105.589218 193.763672,104.080086 195.897125,104.061180 
	C203.517578,103.993660 211.138992,104.034752 219.071121,104.034752 
	C219.679398,108.585693 217.370026,112.086845 216.209106,115.704399 
	C208.229980,140.568314 199.960770,165.338974 191.833740,190.155640 
	C186.296310,207.064789 180.714493,223.961441 175.432236,240.950638 
	C174.130310,245.138000 171.891571,246.340790 167.786179,246.117401 
	C162.472366,245.828232 157.128174,246.055710 151.797913,246.125763 
	C148.462921,246.169586 147.270981,244.970367 148.399139,241.538361 
	C152.867050,227.946609 157.161316,214.297867 161.587219,200.692154 
	C167.763809,181.704742 174.000610,162.736923 180.354797,143.388748 
z"/>
<path fill="#000000" opacity="1.000000" stroke="none" 
	d="
M146.034943,216.077240 
	C125.475525,207.725113 105.292557,199.483734 85.076309,191.324814 
	C82.747063,190.384750 81.654282,189.006546 81.693062,186.471451 
	C81.779678,180.809708 81.801880,175.143860 81.680107,169.483353 
	C81.619972,166.688095 82.992996,165.206635 85.383942,164.235840 
	C106.341339,155.726425 127.305771,147.233871 148.227982,138.638626 
	C151.798920,137.171600 152.787704,138.559372 152.710083,141.856293 
	C152.584717,147.180862 152.124283,152.532623 152.501358,157.823288 
	C152.826645,162.387054 150.742462,164.484985 146.906342,165.921082 
	C139.121414,168.835419 131.391068,171.895676 123.643471,174.909348 
	C121.947906,175.568878 120.168137,176.104645 118.413910,178.318817 
	C123.257660,181.371109 128.785660,182.544159 133.764709,184.801697 
	C138.754425,187.064056 143.976013,188.814285 149.092148,190.798889 
	C150.664612,191.408859 152.630920,192.080719 152.528458,193.982559 
	C152.116882,201.620712 153.935883,209.248764 152.545319,216.871872 
	C152.493591,217.155411 152.160583,217.387634 151.885956,217.735977 
	C149.749954,218.529221 148.264587,216.635376 146.034943,216.077240 
z"/>
<path fill="#000000" opacity="1.000000" stroke="none" 
	d="
M230.605988,211.696838 
	C225.627808,213.718918 220.988327,215.553848 216.377579,217.458344 
	C213.450150,218.667526 212.251465,217.408997 212.294418,214.602432 
	C212.391068,208.287216 212.679321,201.974167 212.717422,195.659195 
	C212.735092,192.732681 214.530807,191.631195 216.818359,190.726089 
	C224.860016,187.544266 232.895874,184.347488 240.918762,181.118698 
	C242.712906,180.396652 244.830994,180.036163 245.682877,177.211243 
	C241.162659,173.595901 235.318909,172.552628 230.146912,170.188385 
	C225.769836,168.187546 221.184921,166.638885 216.679993,164.921539 
	C214.892761,164.240204 213.130417,163.358902 213.014816,161.269821 
	C212.594894,153.680557 212.466965,146.084717 213.032455,138.470886 
	C216.501419,137.776398 219.000061,139.342743 221.527817,140.369934 
	C240.458054,148.062668 259.308533,155.953323 278.281769,163.537338 
	C282.092865,165.060730 283.826904,166.966949 283.466949,171.220474 
	C283.061371,176.012863 283.171082,180.871521 283.390442,185.686142 
	C283.535492,188.870697 282.266479,190.414291 279.373962,191.585480 
	C263.194427,198.136642 247.088150,204.868805 230.605988,211.696838 
z"/>
</svg>