<svg version="1.1" id="Layer_1" xmlns="http://www.w3.org/2000/svg" xmlns:xlink="http://www.w3.org/1999/xlink" x="0px" y="0px"
	 width="100%" viewBox="0 0 304 288" enable-background="new 0 0 304 288" xml:space="preserve">
<path fill="#000000" opacity="1.000000" stroke="none" 
	d="
M190.004639,245.870758 
	C189.187164,245.870132 188.847824,245.911575 188.521530,245.863831 
	C179.663025,244.567474 174.140137,245.870132 169.429520,256.017426 
	C160.352142,275.571320 132.078903,276.325012 119.526184,258.646881 
	C117.375641,255.618240 115.225670,254.428375 111.517029,254.062668 
	C97.461342,252.676727 87.441475,243.187866 84.497635,229.225616 
	C84.158638,227.617798 83.733261,226.028168 83.288315,224.182846 
	C77.096870,224.267883 70.978020,224.761597 65.076385,222.364136 
	C50.761208,216.548813 43.055775,202.243607 46.672245,187.184738 
	C47.519917,183.655075 46.875240,181.521301 44.109936,179.075623 
	C23.727135,161.048752 23.456486,130.452332 43.599644,111.986298 
	C46.733276,109.113564 47.545712,106.725037 46.581852,102.631485 
	C41.995403,83.152657 58.276253,64.589195 78.131630,66.520546 
	C81.666100,66.864357 83.476021,66.334641 84.372635,62.371269 
	C88.133003,45.749004 96.664200,38.348682 113.539764,36.699749 
	C116.087982,36.450760 117.328194,35.013714 118.620453,33.219421 
	C126.992638,21.594780 139.515366,16.948862 152.228470,20.708105 
	C165.199783,24.543699 173.563400,35.147575 174.195709,49.093204 
	C174.352554,52.552177 175.419159,53.836384 178.884491,53.697437 
	C184.041748,53.490654 189.213547,53.656292 194.379120,53.644363 
	C201.802689,53.627220 205.209442,48.969376 202.733627,41.967438 
	C200.675858,36.147816 201.811523,30.994368 206.061798,26.808990 
	C210.155334,22.777979 215.221420,21.627258 220.831345,23.544704 
	C227.356857,25.775089 230.953842,31.494747 230.308105,38.755573 
	C229.749573,45.035862 224.339233,51.078339 217.921890,51.070236 
	C212.923325,51.063923 210.651978,53.185917 209.218048,57.374493 
	C207.722107,61.744232 204.635162,63.466156 199.991089,63.312546 
	C192.833847,63.075809 185.658691,63.404362 178.499191,63.204464 
	C173.639786,63.068783 174.370605,66.293930 174.281387,69.265694 
	C174.189346,72.331497 174.242432,74.771568 178.577576,74.730690 
	C196.239014,74.564110 213.903030,74.633385 231.565842,74.692146 
	C233.945526,74.700058 235.712097,73.943733 237.145157,72.053795 
	C238.955872,69.665771 240.770889,67.257927 242.816086,65.076126 
	C245.938461,61.745190 247.415176,58.904610 245.209015,53.798695 
	C242.054672,46.498348 247.161392,37.977898 254.495255,35.992954 
	C262.609375,33.796829 270.060120,38.033546 272.383911,46.165009 
	C274.550751,53.747257 270.287872,62.245556 262.251831,63.218422 
	C253.862106,64.234093 250.465103,70.293060 246.729004,75.782539 
	C242.181183,82.464684 236.855423,84.828957 228.801025,84.509178 
	C212.663132,83.868477 196.480560,84.432579 180.319473,84.242340 
	C175.993042,84.191406 173.981522,85.097435 174.208527,90.010124 
	C174.703873,100.730225 172.659943,99.946541 184.120667,99.964050 
	C203.783234,99.994087 223.446671,100.069336 243.107986,99.908844 
	C248.628876,99.863777 253.670349,100.643517 258.118835,104.150612 
	C260.295441,105.866623 262.381592,106.363358 265.378235,104.914932 
	C273.023987,101.219322 282.037903,105.084923 284.755798,112.669403 
	C287.522156,120.389320 283.488434,128.802597 275.841187,131.262802 
	C267.773041,133.858414 260.036011,129.568939 257.628815,121.165703 
	C254.863312,111.511581 252.688614,109.945480 242.270111,109.950630 
	C221.774445,109.960762 201.278793,109.942039 180.783127,109.941193 
	C174.482910,109.940933 174.321487,110.108025 174.295258,116.299400 
	C174.238327,129.742477 174.238327,129.743027 187.529037,129.743744 
	C199.359940,129.744370 211.191422,129.678925 223.021317,129.787781 
	C226.081345,129.815933 228.243530,129.096237 230.157349,126.389915 
	C234.003128,120.951614 240.455704,119.198158 246.577576,121.321716 
	C252.034531,123.214630 256.028900,128.866302 256.085052,134.773987 
	C256.140381,140.593689 251.845001,146.368179 246.023529,148.300171 
	C239.853699,150.347794 233.914703,148.419601 229.915558,142.602936 
	C228.307297,140.263718 226.599411,139.300781 223.787338,139.320801 
	C208.957809,139.426422 194.126373,139.450607 179.297409,139.311264 
	C175.749817,139.277939 174.018326,140.224777 174.247055,144.075272 
	C174.483795,148.060562 174.363022,152.071609 174.287399,156.069275 
	C174.239655,158.593353 175.300491,159.717804 177.853668,159.673096 
	C182.184708,159.597275 186.520233,159.573776 190.849579,159.689301 
	C193.176376,159.751419 194.384369,158.559235 195.635452,156.788223 
	C199.783234,150.916611 205.745193,148.863647 212.184006,150.826584 
	C217.748184,152.522888 222.030365,158.409271 222.134277,164.504547 
	C222.230637,170.156784 218.078934,175.988739 212.590530,177.910858 
	C206.209320,180.145645 200.024429,178.334045 195.942123,172.400330 
	C194.121384,169.753860 192.021423,169.301727 189.204803,169.278732 
	C174.170883,169.156067 174.338394,169.118149 174.191574,184.099747 
	C174.147583,188.588028 175.639694,189.756302 179.939087,189.720520 
	C201.433136,189.541626 222.929565,189.669373 244.425079,189.634506 
	C251.547668,189.622955 255.733582,186.175369 257.193695,179.360184 
	C259.091095,170.503891 266.618225,165.537643 274.927429,167.659836 
	C283.030060,169.729263 287.449432,177.840652 284.940094,186.037231 
	C282.520447,193.940781 273.811829,197.764557 265.408966,194.315979 
	C262.792725,193.242264 260.679871,193.147415 258.466034,194.851212 
	C253.592682,198.601776 248.053360,199.333344 242.010696,199.265488 
	C221.517593,199.035370 201.019043,199.307098 180.525284,199.107788 
	C175.867203,199.062500 173.993301,200.241562 174.204178,205.229706 
	C174.657364,215.949356 173.001968,214.696365 183.978546,214.731125 
	C200.308334,214.782822 216.639893,214.867371 232.967484,214.671265 
	C237.755310,214.613754 241.190262,216.025482 243.944138,220.057617 
	C246.847885,224.309174 250.512573,228.036621 253.486557,232.246155 
	C255.588699,235.221588 258.704132,234.809708 261.504791,235.493103 
	C267.635468,236.989029 271.371399,240.702377 272.621674,246.917480 
	C273.715240,252.353668 271.856110,256.783325 267.821503,260.282227 
	C262.814423,264.624481 255.534988,264.809601 250.239731,260.975830 
	C244.968018,257.159088 242.790680,249.693665 245.789627,243.533676 
	C247.216995,240.601730 246.374146,239.020203 244.913513,236.502930 
	C239.208069,226.670090 231.331848,223.095230 219.825714,224.095703 
	C206.925674,225.217346 193.852081,224.464584 180.856888,224.300018 
	C176.687119,224.247208 174.130096,224.467697 174.096252,229.968369 
	C174.061203,235.659912 176.700272,236.137100 181.106827,235.977783 
	C187.264145,235.755127 193.440582,236.075562 199.599350,235.873825 
	C204.322372,235.719116 207.644058,237.246704 209.275162,241.923218 
	C210.628769,245.804214 212.889465,247.736649 217.610229,248.035477 
	C226.484436,248.597198 232.086960,257.174194 230.055801,265.607483 
	C228.172379,273.427246 220.008392,278.166687 212.221039,275.961121 
	C204.139099,273.672058 199.890717,264.962067 202.889847,256.830322 
	C205.184677,250.608231 202.062073,245.986572 195.484879,245.885315 
	C193.819855,245.859680 192.154221,245.874832 190.004639,245.870758 
M164.669281,75.500061 
	C164.666763,67.001724 164.743301,58.502411 164.637741,50.005356 
	C164.546753,42.680630 161.401123,36.842381 155.421341,32.616119 
	C145.527634,25.623648 130.306671,30.027145 127.436028,39.063309 
	C128.940323,40.115192 130.571426,41.210999 132.155472,42.371078 
	C139.447021,47.711098 143.283432,55.042217 144.248764,63.900757 
	C144.605225,67.171997 144.388596,70.716095 140.095413,71.106789 
	C135.834824,71.494514 134.998718,68.189316 134.721741,64.811287 
	C134.353806,60.323792 132.568970,56.438290 129.628052,53.116985 
	C123.431770,46.119289 113.112480,44.146034 104.990265,48.300205 
	C96.256821,52.766991 92.071198,61.899036 94.222572,71.753372 
	C94.789635,74.350792 95.649895,76.989037 92.926598,79.048393 
	C90.637932,80.779076 88.610847,79.848526 86.432938,78.755295 
	C77.314522,74.178169 68.020058,75.266373 61.500046,81.579094 
	C54.915390,87.954391 53.471687,96.935425 57.937531,106.423225 
	C59.729118,110.229507 59.012825,112.808327 55.570580,114.820183 
	C33.909637,127.480034 31.202045,160.053833 55.264114,175.600189 
	C59.002434,178.015488 59.781128,180.572586 57.662197,184.775848 
	C53.266304,193.495850 55.016479,202.498718 61.729538,209.057388 
	C68.133057,215.313629 76.986145,216.565170 85.755341,212.358078 
	C88.193657,211.188293 90.525726,209.689453 93.128975,211.859604 
	C95.681885,213.987808 94.797295,216.587967 94.165695,219.217361 
	C92.188446,227.448761 95.401680,235.935776 102.222519,240.726257 
	C115.374237,249.963120 132.915161,241.854324 134.690598,225.678497 
	C135.068619,222.234467 135.866898,219.163376 140.163559,219.515854 
	C144.286346,219.854065 144.541595,223.091690 144.292023,226.214874 
	C143.545532,235.556610 139.207932,242.934967 131.774063,248.579208 
	C130.228973,249.752335 128.161514,250.397705 127.357567,252.712173 
	C127.852081,253.446594 128.304398,254.341095 128.956711,255.052078 
	C134.482956,261.075348 143.231323,263.160339 150.917374,260.334595 
	C159.112030,257.321930 164.564835,249.742172 164.626770,240.712326 
	C164.739944,224.216415 164.581177,207.718475 164.731018,191.223145 
	C164.764084,187.582443 163.643982,186.304626 159.902313,186.229263 
	C145.149139,185.932129 140.549347,181.707321 138.764954,167.393753 
	C138.001038,161.266083 134.722519,157.000320 129.293121,154.207489 
	C126.068855,152.548996 122.646835,152.278198 119.113945,152.222397 
	C116.046692,152.173965 113.899437,150.568542 113.894920,147.378967 
	C113.890732,144.415482 115.976921,143.089859 118.789314,142.720322 
	C132.921326,140.863464 147.124893,152.241547 148.331924,166.414902 
	C149.060562,174.970474 151.865463,177.219727 160.681488,176.706299 
	C163.339203,176.551498 164.683960,175.695862 164.668701,172.882187 
	C164.614487,162.884598 164.620422,152.886383 164.668854,142.888718 
	C164.681351,140.308456 163.483917,139.275299 161.002655,139.364197 
	C159.339005,139.423782 157.670181,139.370590 156.004425,139.333649 
	C145.082520,139.091537 135.905228,130.558838 134.939545,119.712120 
	C134.660934,116.582649 135.512421,113.820862 138.961685,113.249336 
	C142.501434,112.662834 143.820236,114.927971 144.417816,118.200752 
	C145.894775,126.289856 150.099533,129.703613 158.131775,129.764969 
	C164.452515,129.813232 164.654022,129.651413 164.661865,123.468803 
	C164.681686,107.812584 164.668549,92.156319 164.669281,75.500061 
M219.477570,39.935253 
	C221.401199,37.293552 221.060089,34.904491 218.405411,33.082890 
	C216.515320,31.785936 214.589722,32.221802 212.997528,33.843430 
	C211.454742,35.414753 210.757751,37.194237 212.182190,39.194832 
	C214.012161,41.764969 216.242508,42.524258 219.477570,39.935253 
M271.464722,185.851868 
	C274.492004,185.557404 275.999329,183.868439 275.731812,180.856934 
	C275.506012,178.315430 273.776093,176.920593 271.388672,176.857391 
	C268.985596,176.793747 267.177765,178.224609 266.744080,180.619354 
	C266.204803,183.597122 267.765564,185.323685 271.464722,185.851868 
M261.104431,53.615448 
	C263.647125,51.646461 264.236725,49.363621 262.043549,46.789997 
	C260.545105,45.031582 258.534668,44.822472 256.592194,45.783295 
	C254.321320,46.906563 253.590256,49.043655 254.538666,51.281631 
	C255.605545,53.799145 257.491699,55.338398 261.104431,53.615448 
M272.824890,122.130013 
	C275.361603,120.798599 276.353607,118.713158 275.514313,115.984390 
	C274.986053,114.266846 273.607697,113.397438 271.777222,113.279015 
	C269.523560,113.133202 268.000946,114.163177 267.087921,116.153618 
	C265.661377,119.263611 267.480499,121.484787 272.824890,122.130013 
M237.297531,135.232117 
	C237.881851,138.042313 239.471329,139.887146 242.463867,139.301178 
	C244.706589,138.862045 246.463089,137.144363 246.348373,134.734833 
	C246.240234,132.463806 244.871964,130.614029 242.324615,130.366623 
	C239.367355,130.079391 237.550629,131.399704 237.297531,135.232117 
M219.938446,259.686188 
	C218.468887,257.907013 216.746246,256.714355 214.412308,257.969788 
	C212.223755,259.147034 210.706741,260.903259 211.723969,263.562897 
	C212.562531,265.755402 214.336166,267.060028 216.756866,266.565277 
	C220.174347,265.866730 221.211838,263.582214 219.938446,259.686188 
M254.426926,251.018463 
	C255.902771,253.962341 258.253632,254.659805 260.983856,253.086136 
	C262.742157,252.072678 263.942841,250.326630 263.144989,248.068939 
	C262.331177,245.766083 260.514404,244.525299 258.147491,244.909286 
	C255.277679,245.374817 253.995483,247.369904 254.426926,251.018463 
M203.299500,163.833984 
	C204.171509,168.238449 206.757935,170.019562 209.828827,168.237427 
	C211.476379,167.281296 212.631790,165.796585 212.289780,163.791870 
	C211.963547,161.879547 210.668243,160.563583 208.763626,160.061844 
	C206.028931,159.341461 204.417236,160.736649 203.299500,163.833984 
z"/>
<path fill="#000000" opacity="1.000000" stroke="none" 
	d="
M87.512695,123.153168 
	C88.264442,114.133591 86.071617,111.232201 77.663925,109.857025 
	C74.367439,109.317841 70.961678,108.753891 71.647255,104.336082 
	C72.342194,99.857864 75.925583,99.882729 79.400810,100.326553 
	C89.559616,101.623924 96.633766,108.367668 97.347748,117.363510 
	C98.190346,127.979881 93.008194,135.852814 83.297043,138.646393 
	C82.190613,138.964661 81.032806,139.181549 79.885628,139.265808 
	C77.023415,139.475983 74.374626,139.017593 73.816154,135.594467 
	C73.240822,132.068024 75.287682,130.249023 78.513977,129.823929 
	C82.650986,129.278839 85.688675,127.390732 87.512695,123.153168 
z"/>
<path fill="#000000" opacity="1.000000" stroke="none" 
	d="
M77.101807,175.540771 
	C80.696472,166.711761 86.915276,161.456879 95.734184,159.271103 
	C97.167641,158.915833 98.676102,158.792877 100.157784,158.717224 
	C103.162125,158.563889 105.628113,159.688965 105.953720,162.871353 
	C106.312080,166.373871 103.863289,167.907288 100.717224,168.219284 
	C93.374619,168.947479 88.334335,172.666901 85.893318,179.621155 
	C85.249359,181.455734 85.392838,183.551987 84.992615,185.490479 
	C84.453499,188.101669 83.280678,190.353714 80.145172,190.174637 
	C76.833488,189.985504 75.772743,187.749496 75.651909,184.713348 
	C75.531151,181.679199 75.947075,178.762268 77.101807,175.540771 
z"/>
<path fill="#000000" opacity="1.000000" stroke="none" 
	d="
M109.670471,189.957123 
	C109.456551,186.119843 110.457230,183.322479 114.322411,183.273666 
	C117.888687,183.228622 118.771675,186.070480 119.250389,189.067764 
	C120.453781,196.602142 124.093323,200.298477 131.689926,201.875565 
	C132.501602,202.044083 133.306580,202.249741 134.107193,202.465820 
	C136.706635,203.167374 138.198334,204.913910 137.839767,207.555511 
	C137.475388,210.239731 135.486740,211.229431 132.824097,211.407227 
	C121.740440,212.147369 111.601944,202.996674 109.670471,189.957123 
z"/>
<path fill="#000000" opacity="1.000000" stroke="none" 
	d="
M109.769402,100.982666 
	C109.897186,97.492111 111.898712,96.153038 114.588631,95.786766 
	C118.782463,95.215698 121.119591,92.908646 121.947365,88.823067 
	C122.592422,85.639336 123.899536,82.905663 127.861778,83.626556 
	C131.703613,84.325539 131.459625,87.461037 131.317841,90.323830 
	C130.931274,98.128975 123.125702,105.361557 115.309158,105.316910 
	C112.480865,105.300766 110.451492,104.368057 109.769402,100.982666 
z"/>
</svg>