<?xml version="1.0" encoding="utf-8"?>
<!-- Generator: Adobe Illustrator 27.8.1, SVG Export Plug-In . SVG Version: 6.00 Build 0)  -->
<svg version="1.1" id="Layer_1" xmlns="http://www.w3.org/2000/svg" xmlns:xlink="http://www.w3.org/1999/xlink" x="0px" y="0px"
	 viewBox="0 0 237.1 130" style="enable-background:new 0 0 237.1 130;" xml:space="preserve">
<style type="text/css">
	.st0{fill:#0B0B0A;}
	.st1{fill:#0B0B0B;}
	.st2{fill:#0C0C0B;}
</style>
<path class="st0" d="M92.4,99.9c13.4-30.5,26.6-60.7,40-90.7c1.2-2.7,3.4-5.5,5.9-7c3.4-2.1,7.2-1,10,1.9c3.2,3.2,3.6,7,1.9,11
	c-6.5,14.9-13,29.9-19.6,44.8c-8.9,20.4-17.9,40.8-26.8,61.2c-1.8,4.1-4.4,7.2-9.2,7.2c-6.8,0-11.2-6.4-8.8-12.9
	C87.8,110.2,90.1,105.3,92.4,99.9z"/>
<path class="st1" d="M13,48.5c9.6-10.4,19-20.6,28.4-30.7c4.8-5.2,10.1-6.1,14.4-2.3c4.5,3.9,4.5,9.6-0.3,14.9
	C44.8,42.2,33.9,53.9,22.3,66.3c8.6,8.4,17,16.6,25.4,24.8c3,2.9,6,5.8,8.8,8.9c3.8,4.3,3.6,9.7-0.2,13.4c-3.6,3.5-9.2,3.6-13-0.2
	C29.9,100,16.5,86.7,3.3,73.3c-4.5-4.6-4.3-9.3,0-14.2C6.4,55.6,9.6,52.2,13,48.5z"/>
<path class="st2" d="M182.1,31.7c-1.1-1.1-2-1.9-2.7-2.8c-3.2-4-3.1-9.3,0.3-12.7c3.5-3.6,9.1-3.8,13.1-0.4c2.5,2.2,4.8,4.6,7.1,7
	c10.7,10.7,21.4,21.5,32.1,32.2c5.7,5.8,5.8,9.9,0.2,16c-12.5,13.6-25.1,27.2-37.7,40.7c-4.6,4.9-10.3,5.6-14.5,1.8
	c-4.2-3.8-4.1-9.5,0.5-14.6c9.8-10.7,19.7-21.3,29.5-31.9c1.1-1.2,2.2-2.4,3.5-3.9C203.1,52.6,192.7,42.3,182.1,31.7z"/>
</svg>
