<svg width="24" height="24" viewBox="0 0 24 24" fill="none" xmlns="http://www.w3.org/2000/svg">
<path d="M12.436 8.61748L15.8825 12.064M14.2757 6.77782L3.72324 17.3303C2.77152 18.282 2.77152 19.825 3.72324 20.7768V20.7768C4.67496 21.7285 6.218 21.7285 7.16972 20.7768L17.7222 10.2243C18.1518 9.79471 18.1518 9.09823 17.7222 8.66866L15.8313 6.77782C15.4018 6.34824 14.7053 6.34824 14.2757 6.77782Z" stroke="#404040" stroke-width="1.5" stroke-linecap="round" stroke-linejoin="round"/>
<path d="M9.42282 5.94949L9.01129 7.20368C8.92849 7.45603 8.57151 7.45603 8.48871 7.20368L8.07718 5.94949C7.99537 5.70017 7.79983 5.50463 7.55051 5.42282L6.29632 5.01129C6.04397 4.92849 6.04397 4.57151 6.29632 4.48871L7.55051 4.07718C7.79983 3.99537 7.99537 3.79983 8.07718 3.55051L8.48871 2.29632C8.57151 2.04397 8.92849 2.04397 9.01129 2.29632L9.42282 3.55051C9.50463 3.79983 9.70017 3.99537 9.94949 4.07718L11.2037 4.48871C11.456 4.57151 11.456 4.92849 11.2037 5.01129L9.94949 5.42282C9.70017 5.50463 9.50463 5.70017 9.42282 5.94949Z" fill="#404040"/>
<path d="M20.4228 16.9495L20.0113 18.2037C19.9285 18.456 19.5715 18.456 19.4887 18.2037L19.0772 16.9495C18.9954 16.7002 18.7998 16.5046 18.5505 16.4228L17.2963 16.0113C17.044 15.9285 17.044 15.5715 17.2963 15.4887L18.5505 15.0772C18.7998 14.9954 18.9954 14.7998 19.0772 14.5505L19.4887 13.2963C19.5715 13.044 19.9285 13.044 20.0113 13.2963L20.4228 14.5505C20.5046 14.7998 20.7002 14.9954 20.9495 15.0772L22.2037 15.4887C22.456 15.5715 22.456 15.9285 22.2037 16.0113L20.9495 16.4228C20.7002 16.5046 20.5046 16.7002 20.4228 16.9495Z" fill="#404040"/>
<path d="M20.4228 16.9495L20.0113 18.2037C19.9285 18.456 19.5715 18.456 19.4887 18.2037L19.0772 16.9495C18.9954 16.7002 18.7998 16.5046 18.5505 16.4228L17.2963 16.0113C17.044 15.9285 17.044 15.5715 17.2963 15.4887L18.5505 15.0772C18.7998 14.9954 18.9954 14.7998 19.0772 14.5505L19.4887 13.2963C19.5715 13.044 19.9285 13.044 20.0113 13.2963L20.4228 14.5505C20.5046 14.7998 20.7002 14.9954 20.9495 15.0772L22.2037 15.4887C22.456 15.5715 22.456 15.9285 22.2037 16.0113L20.9495 16.4228C20.7002 16.5046 20.5046 16.7002 20.4228 16.9495Z" fill="#404040"/>
<path d="M20.4228 5.44949L20.0113 6.70368C19.9285 6.95603 19.5715 6.95603 19.4887 6.70368L19.0772 5.44949C18.9954 5.20017 18.7998 5.00463 18.5505 4.92282L17.2963 4.51129C17.044 4.42849 17.044 4.07151 17.2963 3.98871L18.5505 3.57718C18.7998 3.49537 18.9954 3.29983 19.0772 3.05051L19.4887 1.79632C19.5715 1.54397 19.9285 1.54397 20.0113 1.79632L20.4228 3.05051C20.5046 3.29983 20.7002 3.49537 20.9495 3.57718L22.2037 3.98871C22.456 4.07151 22.456 4.42849 22.2037 4.51129L20.9495 4.92282C20.7002 5.00463 20.5046 5.20017 20.4228 5.44949Z" fill="#404040"/>
</svg>
